<svg xmlns="http://www.w3.org/2000/svg" viewBox="0 0 491.276 491.276" style="fill:#0275bb;width:108px" xml:space="preserve"><path d="M443.436 218.278c-6.241-6.204-16.319-6.204-22.56 0l-48 48 22.56 22.56 19.04-19.04c-13.343 105.196-109.438 179.657-214.634 166.314S20.185 326.674 33.528 221.478C45.7 125.521 127.351 53.601 224.076 53.638v-32C100.364 21.596.042 121.85 0 245.562s100.212 224.034 223.924 224.076c115.375.039 211.907-87.563 223.032-202.4l21.76 21.76 22.56-22.56-47.84-48.16z"/><path d="M224.076 165.638v80a15.999 15.999 0 0 0 4.64 11.36l48 48 22.56-22.56-43.2-43.36v-73.44h-32z"/></svg>