<svg xmlns="http://www.w3.org/2000/svg" viewBox="0 0 64 64" fill="#fff"><path d="M60 39H50V6c0-2.757-2.243-5-5-5H19c-2.757 0-5 2.243-5 5v33H4c-1.654 0-3 1.346-3 3v14c0 1.654 1.346 3 3 3h6v2H6v2h18v-2h-4v-2h6c1.654 0 3-1.346 3-3V43h6v13c0 1.654 1.346 3 3 3h6v2h-4v2h18v-2h-4v-2h6c1.654 0 3-1.346 3-3V42c0-1.654-1.346-3-3-3zm1 3v11H37V42c0-.551.448-1 1-1h22c.552 0 1 .449 1 1zm-35-3h-6v-8h24v8h-6a2.996 2.996 0 0 0-2.816 2h-6.369A2.994 2.994 0 0 0 26 39zm18-26H20V7h24zm-24 2h24v6H20zm0 8h24v6H20zM16 6c0-1.654 1.346-3 3-3h26c1.654 0 3 1.346 3 3v33h-2V7c0-1.103-.897-2-2-2H20c-1.103 0-2 .897-2 2v32h-2zM4 41h22c.552 0 1 .449 1 1v11H3V42c0-.551.448-1 1-1zm14 20h-6v-2h6zm8-4H4c-.552 0-1-.449-1-1v-1h24v1c0 .551-.448 1-1 1zm26 4h-6v-2h6zm8-4H38c-.552 0-1-.449-1-1v-1h24v1c0 .551-.448 1-1 1z"/><path d="M22 9h2v2h-2zM26 9h2v2h-2zM30 9h2v2h-2zM40 17h2v2h-2zM36 17h2v2h-2zM32 17h2v2h-2zM22 25h2v2h-2zM26 25h2v2h-2zM30 25h2v2h-2zM32 33c-1.654 0-3 1.346-3 3s1.346 3 3 3 3-1.346 3-3-1.346-3-3-3zm0 4a1.001 1.001 0 0 1 0-2 1.001 1.001 0 0 1 0 2zM54 15.816V37h2V15.816A2.996 2.996 0 0 0 58 13c0-1.654-1.346-3-3-3s-3 1.346-3 3c0 1.302.839 2.402 2 2.816zM55 12a1.001 1.001 0 1 1-1 1c0-.551.448-1 1-1zM57 34c0 1.654 1.346 3 3 3s3-1.346 3-3a2.996 2.996 0 0 0-2-2.816V10h-2v21.184A2.996 2.996 0 0 0 57 34zm3 1a1.001 1.001 0 0 1 0-2 1.001 1.001 0 0 1 0 2zM3 15.816V37h2V15.816A2.996 2.996 0 0 0 7 13c0-1.654-1.346-3-3-3s-3 1.346-3 3c0 1.302.839 2.402 2 2.816zM4 12a1.001 1.001 0 1 1-1 1c0-.551.448-1 1-1zM6 34c0 1.654 1.346 3 3 3s3-1.346 3-3a2.996 2.996 0 0 0-2-2.816V10H8v21.184A2.996 2.996 0 0 0 6 34zm3 1a1.001 1.001 0 0 1 0-2 1.001 1.001 0 0 1 0 2zM39 43h2v2h-2zM43 43h2v2h-2zM47 43h2v2h-2zM23 49h2v2h-2zM19 49h2v2h-2zM15 49h2v2h-2z"/></svg>