<svg xmlns="http://www.w3.org/2000/svg" viewBox="-1 0 454 454.537" fill="#fff"><path d="m446.14 188.012-42.847-4.133a184.679 184.679 0 0 0-21.856-51.762L408.77 99.11a6.998 6.998 0 0 0-.442-9.414l-45.555-45.55a6.998 6.998 0 0 0-9.414-.442l-32.953 27.29a180.597 180.597 0 0 0-51.816-21.817l-4.13-42.848A6.996 6.996 0 0 0 257.493 0h-62.25a6.995 6.995 0 0 0-6.965 6.328l-4.132 42.848a180.574 180.574 0 0 0-51.813 21.816L99.375 43.703a6.998 6.998 0 0 0-9.414.442l-45.55 45.55a6.998 6.998 0 0 0-.442 9.414L71.3 132.117a184.679 184.679 0 0 0-21.856 51.762l-42.851 4.133a6.995 6.995 0 0 0-6.324 6.965v64.582a7.002 7.002 0 0 0 6.328 6.968l42.847 4.13a180.455 180.455 0 0 0 21.813 51.812l-27.29 32.957a6.998 6.998 0 0 0 .442 9.414l45.555 45.555a6.998 6.998 0 0 0 9.414.44l33.004-27.331a184.769 184.769 0 0 0 51.765 21.855l4.13 42.848a6.993 6.993 0 0 0 6.968 6.328h62.25a6.992 6.992 0 0 0 6.965-6.328l4.133-42.848a184.679 184.679 0 0 0 51.761-21.855l33.008 27.332a6.998 6.998 0 0 0 9.414-.441l45.551-45.555a6.998 6.998 0 0 0 .442-9.414l-27.293-32.957a180.465 180.465 0 0 0 21.816-51.813l42.848-4.129a7.002 7.002 0 0 0 6.328-6.968v-64.582a6.995 6.995 0 0 0-6.328-6.965zm-7.671 65.187-41.531 4a7.005 7.005 0 0 0-6.172 5.488 165.854 165.854 0 0 1-23.774 56.415 6.994 6.994 0 0 0 .43 8.347l26.5 32-36.54 36.54-32-26.5a7.005 7.005 0 0 0-8.257-.493 170.823 170.823 0 0 1-56.5 23.836 7.004 7.004 0 0 0-5.492 6.172l-4 41.531h-49.531l-4-41.531a7.005 7.005 0 0 0-5.489-6.172 170.788 170.788 0 0 1-56.5-23.836 7.011 7.011 0 0 0-8.261.492l-31.997 26.5-36.539-36.539 26.5-32a7 7 0 0 0 .434-8.347 165.774 165.774 0 0 1-23.781-56.41 7.005 7.005 0 0 0-6.172-5.489l-41.531-4v-51.867l41.53-4a7.005 7.005 0 0 0 6.173-5.488 170.823 170.823 0 0 1 23.836-56.5 6.999 6.999 0 0 0-.493-8.258l-26.5-32 36.54-36.543 31.996 26.5a7 7 0 0 0 8.347.433 165.766 165.766 0 0 1 56.41-23.777 6.996 6.996 0 0 0 5.489-6.168l4-41.531h49.535l4 41.531a6.996 6.996 0 0 0 5.488 6.168 165.817 165.817 0 0 1 56.414 23.777 6.994 6.994 0 0 0 8.344-.433l32-26.5 36.543 36.543-26.5 32a6.993 6.993 0 0 0-.492 8.258 170.823 170.823 0 0 1 23.836 56.5 6.996 6.996 0 0 0 6.168 5.488l41.53 4v51.863zm0 0"/><path d="M227.246 90.27c-75.543 0-137 61.457-137 137 0 75.539 61.457 137 137 137s137-61.461 137-137c0-75.543-61.457-137-137-137zm0 260c-67.93 0-123-55.07-123-123 0-67.934 55.07-123 123-123s123 55.066 123 123c-.078 67.898-55.101 122.921-123 123zm0 0"/><path d="M226.613 173.309c13.301-.016 24.082-10.797 24.098-24.102v-7.238c0-13.313-10.79-24.102-24.098-24.102-13.312 0-24.101 10.79-24.101 24.102v7.238c.015 13.305 10.797 24.086 24.101 24.102zm-12.101-31.344c0-6.68 5.418-12.098 12.101-12.098 6.684 0 12.098 5.418 12.098 12.098v7.242c0 6.68-5.414 12.098-12.098 12.098-6.683 0-12.101-5.418-12.101-12.098zm33.929 35.269h-4.574a5.994 5.994 0 0 0-5.058 2.778l-4.2 6.586-4.718-2.641a6.003 6.003 0 0 0-5.993.078l-3.91 2.324-3.601-6.156a6 6 0 0 0-5.18-2.969h-5.152c-13.64.016-24.7 11.07-24.711 24.715v47.707a5.99 5.99 0 0 0 1.16 3.547l14.031 19.14 3.125 48.2c.344 9.027 7.778 16.156 16.809 16.125h21.648c9.031.031 16.461-7.098 16.809-16.121l3.125-48.215 13.945-19.156a5.998 5.998 0 0 0 1.149-3.531v-47.7c-.016-13.64-11.067-24.691-24.704-24.71zm12.707 70.461-13.82 18.985a6.008 6.008 0 0 0-1.137 3.14l-3.242 50.028c-.004.058-.008.113-.008.172a4.813 4.813 0 0 1-4.824 4.652H216.47a4.807 4.807 0 0 1-4.82-4.652 1.27 1.27 0 0 0-.012-.172l-3.242-50.028a6.02 6.02 0 0 0-1.149-3.16l-13.906-18.965V201.95c.008-7.02 5.695-12.707 12.715-12.715h1.715l4.914 8.403a5.996 5.996 0 0 0 8.293 2.09l6.07-3.602 6.648 3.719a6 6 0 0 0 7.989-2.016l5.472-8.586h1.278c7.015.008 12.699 5.692 12.707 12.707v45.754zm0 0"/></svg>