<svg xmlns="http://www.w3.org/2000/svg" viewBox="0 0 64 64" fill="#fff"><path d="M23 28v-4a7.002 7.002 0 0 0-3.542-6.079 7.712 7.712 0 0 0 5.374-3.367A.998.998 0 0 0 24 13c-1.654 0-3-1.346-3-3V9c0-4.411-3.589-8-8-8S5 4.589 5 9v1c0 1.654-1.346 3-3 3a1 1 0 0 0-.832 1.554 7.719 7.719 0 0 0 5.374 3.367A7.002 7.002 0 0 0 3 24v4a1 1 0 0 0 1 1h18a1 1 0 0 0 1-1zm-6-15c0 2.206-1.794 4-4 4s-4-1.794-4-4v-2a4.997 4.997 0 0 0 4-2.003A4.997 4.997 0 0 0 17 11zm-7 6h6l-1.109 1.478-1.185-1.185a.997.997 0 0 0-1.413 0l-1.185 1.185zm-3-9V9c0-3.309 2.691-6 6-6s6 2.691 6 6v1a5.007 5.007 0 0 0 3.115 4.631A5.724 5.724 0 0 1 18.395 16h-.206A5.967 5.967 0 0 0 19 13v-3a1 1 0 0 0-1-1h-1c-1.654 0-3-1.346-3-3a1 1 0 1 0-2 0c0 1.654-1.346 3-3 3H8a1 1 0 0 0-1 1v3c0 1.093.299 2.116.812 3h-.207a5.726 5.726 0 0 1-3.721-1.369A5.007 5.007 0 0 0 7 10zm14 17h-2v-4h-2v4H9v-4H7v4H5v-3c0-1.993 1.18-3.703 2.871-4.506L10.2 22.6c.174.232.44.377.729.397a.981.981 0 0 0 .778-.29L13 21.414l1.293 1.293A.997.997 0 0 0 15.8 22.6l2.329-3.106C19.82 20.297 21 22.007 21 24zM57.34 51.132A6.002 6.002 0 0 0 58.65 49H60c1.654 0 3-1.346 3-3a2.996 2.996 0 0 0-2-2.816V40c0-2.757-2.243-5-5-5h-2v-7a1 1 0 0 0-1-1H41a.997.997 0 0 0-.707.293l-10 10A.996.996 0 0 0 30 38v16a1 1 0 0 0 1 1h12.685A6.955 6.955 0 0 0 43 58v4a1 1 0 0 0 1 1h18a1 1 0 0 0 1-1v-4c0-3.401-2.44-6.241-5.66-6.868zM47 47h-1a1.001 1.001 0 0 1 0-2h1zm2-3.003a5.028 5.028 0 0 0 1.253-1.371C51.79 44.124 54.388 45 56 45h1v2c0 2.206-1.794 4-4 4s-4-1.794-4-4zM50 53h6l-1.109 1.478-1.185-1.185a.997.997 0 0 0-1.413 0l-1.185 1.185zm10-6h-1v-2h1a1.001 1.001 0 0 1 0 2zm-1-7v3h-3c-1.974 0-5-1.609-5-3a1 1 0 1 0-2 0 3.006 3.006 0 0 1-2 2.829V40c0-1.654 1.346-3 3-3h6c1.654 0 3 1.346 3 3zm-19-9.586V37h-6.586zM32 39h9a1 1 0 0 0 1-1v-9h10v6h-2c-2.757 0-5 2.243-5 5v3.184A2.996 2.996 0 0 0 43 46c0 1.654 1.346 3 3 3h1.35a6.002 6.002 0 0 0 1.31 2.132A6.99 6.99 0 0 0 45.11 53H32zm29 22h-2v-4h-2v4h-8v-4h-2v4h-2v-3c0-1.993 1.18-3.703 2.871-4.506L50.2 56.6a.998.998 0 0 0 1.507.107L53 55.414l1.293 1.293A.997.997 0 0 0 55.8 56.6l2.329-3.106C59.82 54.297 61 56.007 61 58z"/><path d="M33 40h2v2h-2zM36 40h6v2h-6zM33 43h2v2h-2zM36 43h6v2h-6zM33 46h2v2h-2zM36 46h6v2h-6zM32 26a.997.997 0 0 0 .707-.293l2-2A.996.996 0 0 0 35 23v-8.681A7.01 7.01 0 0 0 39 8c0-3.859-3.14-7-7-7s-7 3.141-7 7a7.01 7.01 0 0 0 4 6.319V17c0 .266.105.52.293.707l.293.293-.293.293a.999.999 0 0 0 0 1.414l.293.293-.293.293A.996.996 0 0 0 29 21v2c0 .266.105.52.293.707l2 2A.997.997 0 0 0 32 26zm-.293-6.707L31.414 19l.293-.293a.999.999 0 0 0 0-1.414L31 16.586v-2.935a.997.997 0 0 0-.667-.942A5.008 5.008 0 0 1 27 8c0-2.757 2.243-5 5-5s5 2.243 5 5c0 2.11-1.34 4.003-3.333 4.709a1 1 0 0 0-.667.942v8.935l-1 1-1-1v-1.172l.707-.707a.999.999 0 0 0 0-1.414z"/><path d="M31 4h2v2h-2zM13 33.414l2.293 2.293 1.414-1.414-4-4a.999.999 0 0 0-1.414 0l-4 4 1.414 1.414L11 33.414V52a1 1 0 0 0 1 1h16v-2H13zM51 22.586l-2.293-2.293-1.414 1.414 4 4a.997.997 0 0 0 1.414 0l4-4-1.414-1.414L53 22.586V12a1 1 0 0 0-1-1H41v2h10z"/></svg>